<svg xmlns="http://www.w3.org/2000/svg" xmlns:xlink="http://www.w3.org/1999/xlink" width="407.7116241413717" height="466.9821289956908" viewBox="0 0 407.7116241413717 466.9821289956908" fill="none"><g opacity="1" transform="translate(0 0)  rotate(0 203.85581207068586 233.49106449784546)"><path id="Fill 416" fill-rule="evenodd" style="fill:#000000" transform="translate(152.73660277906706 15.381234067712375)  rotate(0 2.8039658069610596 7.507442951202395)" opacity="1" d="M1.58 13.45L5.61 13.82L5.5 15.01L0 14.51L4.4 0L5.55 0.35L1.58 13.45Z" /><path id="Fill 417" fill-rule="evenodd" style="fill:#000000" transform="translate(162.78660583082487 28.217499631677217)  rotate(0 3.1833409415535243 3.811365842819214)" opacity="1" d="M5.94779 0.022084C6.05159 0.312511 7.00048 2.96741 5.63 5.11C4.75 6.49 3.14 7.31 0.85 7.56C0.59 7.59 0.33 7.61 0.06 7.62L0 6.42C2.3 6.3 3.86 5.64 4.61 4.47C5.71 2.77 4.83 0.46 4.82 0.44L5.94 0C5.94139 0.0041844 5.94404 0.011591 5.94779 0.022084Z" /><path id="Fill 418" fill-rule="evenodd" style="fill:#000000" transform="translate(143.45146197726461 0)  rotate(0 21.212947671195433 16.704056281252203)" opacity="1" d="M28.7271 4.31751C26.4019 5.04371 24.4053 5.66727 26.08 6.11C52.7 13.11 40.48 28.18 33.24 33.14C32.13 33.9 30.67 32.95 30.87 31.63C31.09 30.29 31.15 28.41 30.86 25.82C30.4054 21.8154 25.9043 22.0223 20.4279 22.274C13.2546 22.6037 4.40792 23.0104 0.79 14.13C-4.9 0.17 21.66 -0.82 28.76 0.37C36.995 1.73533 32.4417 3.1574 28.7271 4.31751Z" /><path id="Fill 419" fill-rule="evenodd" style="fill:#000000" transform="translate(138.95999999586394 5.440000852380344)  rotate(0 24.605 26.62)" opacity="1" d="M47.8039 26.4822Z M41.5139 30.1022C41.6639 29.7322 41.8139 29.3522 41.9439 28.9722C42.1239 29.0522 42.3139 29.1322 42.5039 29.1922C42.6939 29.2622 42.8939 29.3022 43.0939 29.3322C43.9839 29.4922 44.8939 29.3522 45.7139 28.9322C46.7139 28.4222 47.4539 27.5522 47.8039 26.4822C48.1539 25.4122 48.0539 24.2722 47.5439 23.2722C47.0339 22.2722 46.1639 21.5322 45.0939 21.1822C44.8239 21.0922 44.5439 21.0322 44.2639 21.0122C44.1139 20.9922 43.9539 20.9822 43.7939 20.9822C43.5539 20.9822 43.3039 21.0022 43.0639 21.0422C43.0439 20.6422 43.0139 20.2422 42.9639 19.8422C42.6939 17.3522 41.9539 14.9122 40.7839 12.6122C38.2339 7.63218 33.9039 3.94218 28.5739 2.22218C26.4639 1.54218 24.2839 1.20218 22.1239 1.20218C18.8539 1.20218 15.6039 1.98218 12.6039 3.51218C7.62391 6.06218 3.93391 10.3922 2.22391 15.7122C-1.32609 26.7022 4.72391 38.5322 15.7039 42.0822C26.1839 45.4622 37.4139 40.1222 41.5139 30.1022Z M48.6202 22.7201Z M48.9502 26.8501C49.3902 25.4801 49.2702 24.0101 48.6202 22.7201C47.9602 21.4401 46.8402 20.4901 45.4602 20.0401C45.0402 19.9101 44.6002 19.8201 44.1702 19.7901C43.8902 17.1301 43.1102 14.5201 41.8502 12.0601C39.1602 6.80008 34.5802 2.90007 28.9502 1.08007C23.3202 -0.729925 17.3202 -0.249925 12.0602 2.44007C6.79015 5.13007 2.89015 9.72007 1.07015 15.3501C-2.00985 24.8901 1.77015 35.0301 9.65015 40.4301L8.51015 53.1301L9.70015 53.2401L10.7902 41.1601C12.2002 42.0001 13.7202 42.7001 15.3402 43.2201C17.5902 43.9501 19.8802 44.3001 22.1302 44.3001C22.1702 44.3001 22.2202 44.2901 22.2702 44.2901L21.6202 52.1801L22.8202 52.2801L23.4802 44.2501C31.7902 43.7401 39.4002 38.5301 42.6602 30.4801C43.0402 30.5601 43.4202 30.6001 43.8002 30.6001C46.0802 30.6001 48.2102 29.1401 48.9502 26.8501Z " /><path id="Fill 420" fill-rule="evenodd" style="fill:#000000" transform="translate(180.0542905408218 28.430640141294543)  rotate(0 2.7624612987185793 2.3607191929757616)" opacity="1" d="M1.19993 4.65655L1.2 4.66L0 4.72C0 4.71596 -0.000161707 4.70862 -0.000392122 4.69816C-0.00643848 4.42373 -0.059797 2.00191 1.52 0.74C2.5 -0.05 3.85 -0.21 5.52 0.26L5.2 1.42C3.92 1.06 2.93 1.15 2.27 1.68C1.15224 2.58205 1.19773 4.56082 1.19993 4.65655Z" /><path id="Fill 421" fill-rule="evenodd" style="fill:#000000" transform="translate(68.79640960279752 326.03942956331787)  rotate(0 3.5537303640078535 10.47160530090332)" opacity="1" d="M2.73 0.65C3.11 0.53 3.46 0.33 3.72 0.07C3.74 0.05 3.75 0.02 3.77 0C7.46 4.2 8.23 10.57 5.37 15.56L5.27 15.72C4.91 16.33 4.49 16.93 4.03 17.49C3.05 18.67 2.14 19.82 1.29 20.94C0.9 20.73 0.45 20.63 0 20.66C0.96 19.38 1.99 18.07 3.1 16.72C3.56 16.17 3.97 15.58 4.32 14.97L4.41 14.82C6.95 10.23 6.17 4.43 2.73 0.65Z" /><path id="Fill 422" fill-rule="evenodd" style="fill:#000000" transform="translate(119.32841491285612 295.5661019265991)  rotate(0 10.99946594238281 4.50467586517334)" opacity="1" d="M0 0.89C0.05 0.87 0.1 0.84 0.15 0.82C0.31 0.73 0.45 0.64 0.58 0.54C0.8 0.54 1.01 0.51 1.22 0.46C1.57 0.39 1.87 0.24 2.13 0.02C2.14 0.01 2.14 0 2.15 0C7.98 1.6 13.22 3.67 18.32 6.15C19.58 6.76 20.8 7.4 22 8.06C21.68 8.33 21.41 8.65 21.23 9.01C20.11 8.39 18.97 7.8 17.79 7.23C12.44 4.63 6.38 2.5 0 0.89Z" /><path id="Fill 423" fill-rule="evenodd" style="fill:#000000" transform="translate(106.43994140211393 304.28265468727216)  rotate(0 3.283242464065552 2.543381439411415)" opacity="1" d="M4.57 0.97C5.73 1.82 6.4 3.17 6.57 4.98L5.37 5.09C5.24 3.64 4.73 2.58 3.87 1.94C2.39 0.85 0.28 1.29 0.26 1.3L0 0.12C0.002894 0.119474 0.00746996 0.118588 0.0136724 0.117387C0.243221 0.0729359 2.70051 -0.402904 4.57 0.97Z" /><path id="Fill 424" fill-rule="evenodd" style="fill:#000000" transform="translate(115.52707671705534 356.3618477762085)  rotate(0 22.94510664109924 29.55536447478921)" opacity="1" d="M43.3 59.05L42.88 59.08C42.85 59.09 42.29 59.12 41.32 59.11C37.32 59.03 26.36 58.03 16.77 49.74C6.89 41.19 1.25 27.6 0 9.34L1.2 9.26C2.42 27.18 7.92 40.49 17.54 48.81C27.95 57.82 40.02 57.97 42.38 57.9C47.45 40.15 44.35 25.22 33.15 13.53C24.73 4.73 14.65 1.17 14.55 1.14L14.94 0C15.04 0.04 25.4 3.69 34.02 12.69C41.99 21.03 50.1 35.76 43.41 58.65L43.3 59.05Z" /><path id="Fill 425" fill-rule="evenodd" style="fill:#000000" transform="translate(128.70910644117643 360.1246956765991)  rotate(0 14.446590340678021 23.89555549621582)" opacity="1" d="M0.48 0C0.56 0.04 8.71 3.59 16.18 11.21C23.09 18.26 30.83 30.33 28.46 47.79L27.26 47.63C29.57 30.67 22.06 18.94 15.35 12.08C8.04 4.62 0.08 1.14 0 1.11L0.48 0Z" /><path id="Fill 426" fill-rule="evenodd" style="fill:#000000" transform="translate(148.3394927937155 382.02133263948974)  rotate(0 2.8226459673970097 14.42767333984375)" opacity="1" d="M0 0.57L1.06 0C1.13 0.13 8.25 13.6 4.61 28.86L3.44 28.58C6.97 13.77 0.07 0.7 0 0.57Z" /><path id="Fill 427" fill-rule="evenodd" style="fill:#000000" transform="translate(121.44080352369596 375.618805784021)  rotate(0 10.889166831970215 14.87491035461426)" opacity="1" d="M1.17 0C1.23 0.24 6.94 23.63 21.78 28.61L21.4 29.75C5.93 24.56 0.23 1.27 0 0.28L1.17 0Z" /><path id="Fill 428" fill-rule="evenodd" style="fill:#000000" transform="translate(95.38999999586393 339.15000085238034)  rotate(0 20.14 12.855)" opacity="1" d="M37.319 3.31213Z M15.389 22.5721L33.539 11.0621L37.319 3.31213L5.13904 23.8521L15.389 22.5721Z M-0.00196134 25.71Z M15.678 23.75L15.808 23.73L34.328 11.99L34.468 11.89L40.278 -3.46224e-07L-0.00196134 25.71L15.678 23.75Z " /><path id="Fill 429" fill-rule="evenodd" style="fill:#000000" transform="translate(262.605987544692 372.5237435281616)  rotate(0 3.6511163016134223 10.56903648376465)" opacity="1" d="M1.29 21.14C0.89 20.92 0.45 20.81 0 20.83C0.98 19.57 2.03 18.27 3.17 16.94C3.64 16.4 4.05 15.82 4.41 15.21L4.5 15.06C7.18 10.43 6.4 4.47 2.85 0.64C2.95 0.61 3.05 0.57 3.15 0.53C3.33 0.41 3.52 0.3 3.7 0.18C3.78 0.13 3.84 0.06 3.9 0C7.7 4.26 8.46 10.79 5.45 15.83L5.36 15.98C4.98 16.59 4.55 17.17 4.08 17.73C3.09 18.89 2.16 20.03 1.29 21.14Z" /><path id="Fill 430" fill-rule="evenodd" style="fill:#000000" transform="translate(314.6051330525045 343.05624474886474)  rotate(0 10.61814594268799 4.68719482421875)" opacity="1" d="M0 1.09C0.43 0.69 0.91 0.35 1.38 0C7.23 1.7 12.48 3.88 17.59 6.47C18.84 7.1 20.05 7.76 21.24 8.44C20.91 8.7 20.63 9.02 20.45 9.37C19.34 8.74 18.21 8.13 17.04 7.54C11.92 4.94 6.11 2.78 0 1.09Z" /><path id="Fill 431" fill-rule="evenodd" style="fill:#000000" transform="translate(300.9470214802389 351.59188927461724)  rotate(0 3.242274045944214 2.5772855309317273)" opacity="1" d="M4.56 1.02C5.7 1.89 6.35 3.25 6.48 5.07L5.29 5.15C5.18 3.7 4.69 2.64 3.84 1.99C2.37 0.87 0.26 1.27 0.24 1.28L0 0.1C0.00163009 0.0997036 0.003796 0.0993018 0.00648769 0.0988025C0.185434 0.0656071 2.68816 -0.398661 4.56 1.02Z" /><path id="Fill 432" fill-rule="evenodd" style="fill:#000000" transform="translate(310.3897399860983 404.0409554422241)  rotate(0 22.670182888690043 29.776290053174986)" opacity="1" d="M16.1 49.76C6.36 41.05 0.94 27.37 0 9.09L1.2 9.03C2.13 26.97 7.4 40.36 16.88 48.85C27.14 58.03 39.2 58.38 41.56 58.35C46.93 40.68 44.08 25.71 33.08 13.83C24.8 4.89 14.78 1.17 14.68 1.13L15.09 0C15.2 0.04 25.49 3.86 33.96 13.01C41.79 21.47 49.65 36.34 42.59 59.12L42.46 59.51L42.05 59.54C42.0465 59.54 42.036 59.5404 42.0186 59.5411C41.8852 59.5461 41.348 59.5665 40.49 59.54C36.49 59.4 25.55 58.21 16.1 49.76Z" /><path id="Fill 433" fill-rule="evenodd" style="fill:#000000" transform="translate(323.64385985914515 407.78234948519287)  rotate(0 14.112292055843202 24.12455749511719)" opacity="1" d="M0.49 0C0.57 0.04 8.67 3.73 16.01 11.47C22.8 18.63 30.34 30.83 27.68 48.25L26.49 48.07C29.07 31.15 21.76 19.29 15.16 12.33C7.98 4.74 0.08 1.13 0 1.1L0.49 0Z" /><path id="Fill 434" fill-rule="evenodd" style="fill:#000000" transform="translate(342.9156799275045 430.0112923562866)  rotate(0 2.6651863368583917 14.45524787902832)" opacity="1" d="M0 0.55L1.07 0C1.07039 0.000782011 1.07099 0.00198336 1.07181 0.003602C1.21664 0.29176 8.00827 13.8048 4.14 28.91L2.98 28.61C6.75 13.86 0.07 0.68 0 0.55Z" /><path id="Fill 435" fill-rule="evenodd" style="fill:#000000" transform="translate(316.13177489820765 423.1650704324585)  rotate(0 10.652548789978026 15.04062271118164)" opacity="1" d="M1.17 0C1.23 0.24 6.56 23.73 21.31 28.95L20.9 30.08C5.52 24.64 0.22 1.25 0 0.26L1.17 0Z" /><path id="Fill 436" fill-rule="evenodd" style="fill:#000000" transform="translate(288.8899999958639 386.9200008523804)  rotate(0 20.35 12.52)" opacity="1" d="M37.6895 3.26276Z M15.4395 22.1528L33.7795 10.9528L37.6895 3.26276L5.16948 23.2628L15.4395 22.1528Z M-0.0019779 25.04Z M15.708 23.34L15.838 23.32L34.548 11.89L34.698 11.8L40.698 -2.19884e-06L-0.0019779 25.04L15.708 23.34Z " /><path id="Fill 437" fill-rule="evenodd" style="fill:#000000" transform="translate(28.42326522338213 154.42537011507565)  rotate(0 149.45687877692697 112.1691360473633)" opacity="1" d="M2.22 37.73C4.14 32.34 7.35 28.68 11.74 26.86C41.76 14.44 100.41 9.82 101 9.78L101.09 10.98C100.51 11.02 42.05 15.62 12.2 27.97C8.13 29.66 5.16 33.08 3.35 38.14C-2.41 54.27 4.42 83.68 11.17 105.51C19.33 131.94 30.9 158.58 38.88 173.56L98.77 136.75C97.37 133.97 90.35 120.01 84.19 105.76C80.16 96.44 77.27 88.83 75.61 83.12C73.4 75.51 73.35 71.4 75.45 70.19C82.81 65.96 117.7 62.15 122.95 61.6C123.4 48.33 125.81 40.09 125.85 39.95L127 40.3C126.999 40.3028 126.997 40.309 126.995 40.3188C126.778 41.0822 120.503 63.1738 127.05 93.27C131.38 113.16 223.49 215.79 229.8 222.8L296.88 182.42C287.11 173.93 188.04 87.32 187.24 66.26C186.921 57.7242 192.113 50.195 197.613 42.2197L197.64 42.18L197.64 42.1798C206.06 29.9799 214.77 17.3599 202.16 0.73L203.12 0C216.248 17.3277 207.292 30.3066 198.633 42.855L198.63 42.86C193.23 50.68 188.14 58.06 188.45 66.22C189.25 87.37 297.2 181.11 298.29 182.05L298.91 182.59L229.57 224.34L229.24 223.97C225.2 219.5 130.4 114.33 125.88 93.53C123.33 81.85 122.71 71.35 122.91 62.81C117.31 63.41 83.03 67.21 76.05 71.23C74.73 71.99 72.99 76.83 85.29 105.28C92.13 121.08 100.02 136.54 100.09 136.7L100.35 137.19L99.87 137.48L38.43 175.26L38.13 174.69C30.11 159.77 18.31 132.7 10.02 105.86C3.22 83.86 -3.65 54.18 2.22 37.73Z" /><path id="Fill 438" fill-rule="evenodd" style="fill:#000000" transform="translate(13.458244327803895 28.896918537911002)  rotate(0 42.96880340165697 47.382751067642104)" opacity="1" d="M77.47 94.71C69.68 95.07 61.39 93.71 52.82 90.65C35.22 84.39 22.94 69.97 15.74 58.98C6.68 45.16 2.01 31.54 0.73 23.92C0.71 23.83 0.7 23.73 0.68 23.63C-0.76 14.66 0.38 13.01 1.35 12.56C2.05 12.23 2.81 12.55 3.43 13L3.42 12.95Q3.015 10.49 2.91 8.57C2.57 5.34 3.02 3.23 4.27 2.18C4.89 1.66 5.6 1.5 6.28 1.5C6.34 1.5 6.41 1.5 6.47 1.51C6.52 1.51 6.57 1.51 6.62 1.52C6.71 1.52 6.81 1.54 6.91 1.55C6.93 1.55 6.96 1.56 6.98 1.56C7.08 1.58 7.17 1.59 7.26 1.62C7.33 1.63 7.39 1.65 7.46 1.66C7.5 1.68 7.54 1.69 7.59 1.7C8.38 1.92 8.97 2.26 9.02 2.29C9.65 2.63 10.21 3 10.62 3.3C10.79 2.55 11.07 1.9 11.48 1.36C12.04 0.6 12.76 0.16 13.6 0.05C15.11 -0.23 16.78 0.72 18.21 1.9C18.93 2.48 19.41 2.98 19.47 3.05C19.75 3.33 20.02 3.61 20.25 3.87C20.09 2.08 20.4 0.94 21.2 0.42C22.81 -0.63 25.52 1.61 25.83 1.87L25.82 1.87C26.6 2.43 27.45 3.14 28.39 4.02C31.46 6.9 34.68 12.75 38.41 19.52C43.99 29.67 50.95 42.31 60.76 51.31C67 57.03 75.21 58.43 83.33 55.18C83.33 55.28 83.34 55.39 83.36 55.5C83.366 55.5338 83.3733 55.5671 83.3805 55.6004C83.433 55.8424 83.4856 56.0853 83.09 56.56C74.6 59.93 66.58 58.22 60.03 52.21C50.07 43.08 43.06 30.34 37.43 20.11C33.76 13.43 30.58 7.66 27.64 4.91C23.73 1.23 22.36 1.45 21.96 1.71C21.44 2.04 21.31 3.09 21.43 4.26C21.49 4.68 21.57 5.16 21.68 5.7L22.02 7.03C24.63 16.23 34.99 34.43 35.1 34.62L34.13 35.22C33.66 34.4 22.61 14.98 20.61 6.09C20.19 5.53 19.49 4.7 18.67 3.89C18.67 3.88 18.64 3.85 18.6 3.81C18.37 3.59 18.14 3.37 17.9 3.15C16.96 2.34 15.35 1.15 13.95 1.22C13.89 1.22 13.83 1.23 13.77 1.24C12.85 1.43 12.15 2.33 11.67 3.91C10.58 10.48 19.28 26.09 26.27 37.77L25.31 38.4C16.41 23.51 11.68 13.63 10.64 7.49C10.47 6.43 10.4 5.48 10.44 4.64C9.81 4.12 8.66 3.31 7.52 2.92C7.17 2.81 6.77 2.71 6.36 2.7L6.3 2.7C5.96 2.71 5.64 2.78 5.37 2.95C4.71 3.36 3.87 4.63 4.04 8.44C4.21 10.06 4.61 12.16 5.35 14.86C8.7 27.01 17.6 39.94 17.69 40.07L16.78 40.77C16.69 40.64 7.94 27.92 4.42 15.73L3.88 15.03C3.32 14.32 2.29 13.44 1.83 13.66C1.58 13.77 0.41 14.79 1.8 23.46C3.09 31.48 8.18 45.36 16.67 58.31C23.77 69.15 35.86 83.36 53.17 89.52C64.94 93.71 76.1 94.63 85.94 92.31C85.64 92.75 85.52 93.22 85.56 93.67C82.97 94.24 80.29 94.58 77.47 94.71Z" /><path id="Fill 439" fill-rule="evenodd" style="fill:#FFBE21" transform="translate(190.85891723219206 95.31130303743893)  rotate(0 6.94544219970703 20.423227310180664)" opacity="1" d="M2.89 18.03C2.85 17.77 2.82 17.52 2.79 17.27C2.68 16.87 2.49 16.53 2.24 16.22C2.07 15.1 1.81 14 1.75 12.87C1.68 11.58 1.59 10.45 1.22 9.28C1.31 9.01 1.35 8.72 1.32 8.42C1.14 6.3 0.52 4.19 0 2.1C2.11 1.42 4.2 0.71 6.3 0C10.6 6.56 10.74 12.05 10.74 12.05C12.28 14.93 13.28 18.03 13.89 21.21C13.64 21.62 13.5 22.12 13.52 22.73C13.6 25.5 13.43 28 12.81 30.71C12.68 31.29 12.51 31.84 12.37 32.38C11.22 34.28 10.57 36.61 9.3 38.41C8.82 39.08 8.32 39.73 7.8 40.37C7.35 40.5 6.92 40.66 6.5 40.85C6.31 39.48 6.06 38.14 5.73 36.79C5.71 36.73 5.69 36.66 5.67 36.6C5.69 36.45 5.69 36.3 5.67 36.14C5.35 33.32 4.49 30.55 4.42 27.71C4.4 27.1 4.23 26.6 3.96 26.19C3.75 24.48 3.38 22.81 3.2 21.1C3.11 20.25 3 19.44 2.82 18.66C2.87 18.45 2.9 18.24 2.89 18.03Z" /><path id="Fill 440" fill-rule="evenodd" style="fill:#FFBE21" transform="translate(85.8891296345358 55.155785647534)  rotate(0 78.83301544189455 56.27329054004525)" opacity="1" d="M62.93 1.87C62.93 1.87 70.37 11.99 74.89 0.03C74.89 0.03 136.4 -3.27 157.67 55.24L118.06 59.72L112.84 58.78C114.36 68.62 114.91 76.75 113.65 78.93C109.96 85.32 85.84 96.39 85.84 96.39C85.84 96.39 64.24 104.23 59.06 107.4C53.89 110.56 53.98 112.55 53.98 112.55L37.9 109.55L30.06 62.79L11.44 68.51L0 30.51C0 30.51 23.72 8.03 62.93 1.87Z" /><path id="Fill 441" fill-rule="evenodd" style="fill:#000000" transform="translate(137.2659149124261 103.60071648958737)  rotate(0 52.166401976349164 45.851417541503906)" opacity="1" d="M7.13 67.72C6.5 68.06 5.57 68.64 4.63 69.36C4.63 69.36 4.59 69.39 4.54 69.43C4.29 69.62 4.03 69.83 3.78 70.04C2.83 70.87 1.38 72.35 1.22 73.84C1.21 73.91 1.21 73.97 1.2 74.03C1.24 75.03 2.01 75.92 3.49 76.71C9.79 79.01 26.63 72.64 39.31 67.38L39.77 68.49C23.61 75.19 13.07 78.41 6.85 78.41C5.78 78.41 4.83 78.31 4.01 78.12C3.39 78.69 2.39 79.75 1.82 80.88C1.65 81.22 1.49 81.63 1.42 82.05C1.41 82.05 1.41 82.06 1.41 82.06L1.41 82.11C1.36 82.47 1.38 82.82 1.5 83.14C1.8 83.9 2.9 85.01 6.69 85.5C8.32 85.61 10.45 85.56 13.24 85.26C25.77 83.9 40 76.85 40.15 76.78L40.68 77.86C40.54 77.93 26.54 84.85 13.95 86.39L13.17 86.83C12.36 87.3 11.33 88.21 11.47 88.74C11.54 89.02 12.35 90.43 21.12 90.5C29.26 90.57 43.79 87.68 57.96 81.07C69.83 75.54 85.85 65.37 94.8 48.33C102.28 34.08 104.74 19.94 102.01 7.28L103.24 7.14C104.41 12.5 104.63 17.93 103.96 23.77C103.02 32 100.3 40.45 95.87 48.89C86.76 66.23 70.5 76.55 58.47 82.16C43.33 89.22 29.13 91.7 21.41 91.7L21.11 91.7C12.03 91.63 10.59 90.15 10.3 89.04C10.1 88.26 10.54 87.52 11.08 86.94L11.04 86.94C9.37 86.94 7.91 86.86 6.63 86.71C3.39 86.49 1.38 85.65 0.55 84.15C0.15 83.42 0.1 82.64 0.22 81.93C0.23 81.86 0.24 81.8 0.26 81.73L0.29 81.58C0.31 81.48 0.34 81.38 0.37 81.28C0.38 81.25 0.39 81.23 0.4 81.2C0.43 81.11 0.46 81.01 0.5 80.92C0.52 80.85 0.55 80.79 0.58 80.72C0.59 80.68 0.61 80.64 0.63 80.59C0.99 79.8 1.42 79.24 1.46 79.19C1.89 78.59 2.35 78.07 2.72 77.7C2 77.39 1.41 76.97 0.94 76.46C0.28 75.73 -0.03 74.9 0 74C-0.02 72.37 1.2 70.78 2.6 69.49C3.29 68.84 3.86 68.43 3.94 68.38C4.26 68.13 4.58 67.91 4.87 67.7C3.08 67.56 2.01 67.03 1.64 66.1C0.87 64.22 3.52 61.78 3.83 61.51C4.51 60.79 5.35 60.03 6.37 59.2C9.73 56.49 16.03 54.15 23.33 51.44C34.27 47.37 47.88 42.32 58.38 33.62C64.9 28.23 67.67 20.15 66.08 11.33L63.49 0.27L64.66 0L67.27 11.14C69.19 20.64 66.17 28.74 59.15 34.55C48.49 43.37 34.77 48.47 23.74 52.56C16.55 55.24 10.33 57.55 7.13 60.14C2.86 63.59 2.84 65.06 3.03 65.53C3.27 66.13 4.29 66.45 5.46 66.54C5.88 66.55 6.36 66.55 6.92 66.52L8.29 66.41C17.79 65.29 37.46 57.65 37.66 57.57L38.1 58.69C37.21 59.04 16.22 67.19 7.13 67.72Z" /><path id="Fill 442" fill-rule="evenodd" style="fill:#FFBE21" transform="translate(79.37101745191862 393.8349923074585)  rotate(0 25.990455627441406 31.109655380249023)" opacity="1" d="M0.62 0L51.98 61.71L51.36 62.22L0 0.51L0.62 0Z" /><path id="Fill 443" fill-rule="evenodd" style="fill:#FFBE21" transform="translate(107.30489348951627 404.76281823519287)  rotate(0 25.99019241333008 31.109655380249023)" opacity="1" d="M0.62 0L51.98 61.71L51.36 62.22L0 0.51L0.62 0Z" /><path id="Fill 444" fill-rule="evenodd" style="fill:#FFBE21" transform="translate(143.16345214430143 278.25973595980224)  rotate(0 25.990455627441406 31.109655380249023)" opacity="1" d="M0.62 0L51.98 61.71L51.36 62.22L0 0.51L0.62 0Z" /><path id="Fill 445" fill-rule="evenodd" style="fill:#FFBE21" transform="translate(258.3416748005514 227.3652962625366)  rotate(0 25.9907169342041 31.109655380249023)" opacity="1" d="M0.62 0L51.98 61.71L51.37 62.22L0 0.51L0.62 0Z" /><path id="Fill 446" fill-rule="evenodd" style="fill:#FFBE21" transform="translate(257.0522155720358 138.3249215066772)  rotate(0 25.9907169342041 31.109655380249023)" opacity="1" d="M0.62 0L51.98 61.71L51.36 62.22L0 0.51L0.62 0Z" /><path id="Fill 447" fill-rule="evenodd" style="fill:#FFBE21" transform="translate(267.7415771443014 169.05168237093503)  rotate(0 25.99019241333008 31.109655380249023)" opacity="1" d="M0.62 0L51.98 61.71L51.36 62.22L0 0.51L0.62 0Z" /><path id="Fill 448" fill-rule="evenodd" style="fill:#FFBE21" transform="translate(217.5641784626608 49.28429879549558)  rotate(0 25.990455627441406 31.109655380249023)" opacity="1" d="M0.62 0L51.98 61.71L51.36 62.22L0 0.51L0.62 0Z" /><path id="Fill 449" fill-rule="evenodd" style="fill:#FFBE21" transform="translate(355.7307128864889 339.1531075418335)  rotate(0 25.990455627441406 31.109655380249023)" opacity="1" d="M0.62 0L51.98 61.71L51.36 62.22L0 0.51L0.62 0Z" /><path id="Fill 450" fill-rule="evenodd" style="fill:#FFBE21" transform="translate(183.61784362379362 399.2988900125366)  rotate(0 25.990455627441406 31.109655380249023)" opacity="1" d="M0.62 0L51.98 61.71L51.36 62.22L0 0.51L0.62 0Z" /><path id="Fill 451" fill-rule="evenodd" style="fill:#FFBE21" transform="translate(4.427483303286294 42.12487496737058)  rotate(0 2.0496708218747552 6.068562507629395)" opacity="1" d="M1.37 4.39C0.85 6.37 1.56 8.74 3.48 11.44L2.51 12.14C0.36 9.13 -0.42 6.41 0.21 4.07C0.97 1.23 3.49 0.05 3.6 0L4.1 1.09C4.08 1.1 1.97 2.11 1.37 4.39Z" /><path id="Fill 452" fill-rule="evenodd" style="fill:#FFBE21" transform="translate(0 38.050576108728)  rotate(0 3.0137996652903634 8.07443428039551)" opacity="1" d="M1.62 6.18C0.74 8.88 1.26 12.04 3.18 15.57L2.13 16.15C0.04 12.3 -0.52 8.82 0.48 5.78C1.81 1.77 5.37 0.07 5.52 0L6.03 1.09C6 1.1 2.77 2.65 1.62 6.18Z" /><path id="Fill 453" fill-rule="evenodd" style="fill:#FFBE21" transform="translate(34.200931544936196 21.777590718549924)  rotate(0 5.553307056427 2.903736557241136)" opacity="1" d="M8.37 1.16C10.81 2.8 11.1 5.57 11.11 5.69L9.91 5.81C9.9 5.72 9.62 3.45 7.69 2.14C5.99 1 3.52 0.9 0.34 1.83L0 0.68C3.55 -0.37 6.36 -0.2 8.37 1.16Z" /><path id="Fill 454" fill-rule="evenodd" style="fill:#FFBE21" transform="translate(35.83735274854948 17.64876632039404)  rotate(0 7.07044792175293 4.456491995149646)" opacity="1" d="M10.33 2.14C13.69 4.71 14.12 8.62 14.14 8.79L12.94 8.91C12.94 8.88 12.53 5.33 9.59 3.08C7.32 1.36 4.16 0.82 0.2 1.47L0 0.29C4.32 -0.43 7.79 0.2 10.33 2.14Z" /><path id="Fill 455" fill-rule="evenodd" style="fill:#FFBE21" transform="translate(56.870533027160555 301.71533288363037)  rotate(0 51.28119275864366 41.676326751708984)" opacity="1" d="M15.19 40.81L80.77 0C89.7 2.66 98.83 8.44 102.56 18.99L2.37 83.35C2.37 83.35 -8.17 64.52 15.19 40.81Z" /><path id="Fill 456" fill-rule="evenodd" style="fill:#FFBE21" transform="translate(250.2266383532442 349.5227669656616)  rotate(0 51.717716435323524 41.01926040649414)" opacity="1" d="M15.71 39.71L81.97 0C90.84 2.8 99.88 8.74 103.44 19.35L2.19 82.04C2.19 82.04 -8.03 63.04 15.71 39.71Z" /></g></svg>